<svg width="18" height="19" viewBox="0 0 18 19" fill="none" xmlns="http://www.w3.org/2000/svg">
<path fill-rule="evenodd" clip-rule="evenodd" d="M9.75146 3.97144C9.75146 3.55722 9.41567 3.22144 9.00146 3.22144C8.58725 3.22144 8.25146 3.55722 8.25146 3.97144V8.7496H3.47144C3.05722 8.7496 2.72144 9.08538 2.72144 9.4996C2.72144 9.91381 3.05722 10.2496 3.47144 10.2496H8.25146V15.0288C8.25146 15.443 8.58725 15.7788 9.00146 15.7788C9.41567 15.7788 9.75146 15.443 9.75146 15.0288V10.2496H14.5288C14.943 10.2496 15.2788 9.91381 15.2788 9.4996C15.2788 9.08538 14.943 8.7496 14.5288 8.7496H9.75146V3.97144Z" fill="#858798"/>
</svg>
