<svg width="22" height="22" viewBox="0 0 22 22" fill="none" xmlns="http://www.w3.org/2000/svg">
<path d="M6.00202 2.64431C5.3788 2.64431 5.64375 2.63266 4.76684 2.70111C3.84018 2.77343 2.99004 3.20415 2.38594 3.88408C2.05792 4.25327 1.54831 4.40263 1.07789 4.25228L0.644549 4.11379C0.644549 4.11379 0.423174 8.74953 1.76083 9.33261H10.3139V6.95519C10.314 4.57408 8.38318 2.64439 6.00202 2.64431Z" fill="#D77F4A"/>
<path d="M3.79948 14.5104V14.509H2.49082C1.49519 14.509 0.68811 15.3162 0.68811 16.3117V19.3091H10.3139V16.3117C10.3139 15.3161 9.5068 14.509 8.51122 14.509H7.20256V14.5104H3.79948Z" fill="#3C87D0"/>
<path d="M3.79321 13.1509V14.5104C3.79321 15.4501 4.55501 16.2119 5.49474 16.2119C6.43446 16.2119 7.19626 15.4501 7.19626 14.5104C7.19626 14.0338 7.19626 13.6112 7.19626 13.1509H3.79321Z" fill="#FFB09E"/>
<path d="M3.79321 14.5104C3.79321 14.589 3.79901 14.6663 3.80933 14.7422C4.32551 14.9742 4.89893 15.1035 5.50294 15.1035C6.10016 15.1035 6.66743 14.9771 7.17906 14.75C7.1901 14.6716 7.19616 14.5917 7.19616 14.5104C7.19616 14.0338 7.19616 13.6112 7.19616 13.1509H3.79321V14.5104Z" fill="#FFA78F"/>
<path d="M3.49654 11.0326H1.393C0.623691 11.0326 0 10.409 0 9.63959C0 8.87023 0.623691 8.24658 1.393 8.24658H3.49654V11.0326Z" fill="#FFB09E"/>
<path d="M7.50562 8.24658H9.60914C10.3785 8.24658 11.0021 8.87028 11.0021 9.63959C11.0021 10.409 10.3785 11.0326 9.60914 11.0326H7.50562V8.24658Z" fill="#FFA78F"/>
<path d="M1.40674 8.87211V10.4071C1.40674 12.6437 3.24069 14.4569 5.50304 14.4569C7.76534 14.4569 9.59933 12.6437 9.59933 10.4071V8.87211C9.59933 6.63546 7.76538 4.82227 5.50304 4.82227C3.24069 4.82227 1.40674 6.63546 1.40674 8.87211Z" fill="#FFCEBF"/>
<path d="M3.10434 11.7637H2.3927C2.17957 11.7637 2.00684 11.5909 2.00684 11.3778C2.00684 11.1647 2.17957 10.9919 2.3927 10.9919H3.10439C3.31751 10.9919 3.49025 11.1647 3.49025 11.3778C3.49025 11.5909 3.31751 11.7637 3.10434 11.7637Z" fill="#FE8F83"/>
<path d="M5.64126 4.8252C5.48511 4.82962 5.33098 4.84191 5.17969 4.86318C7.16635 5.14256 8.69406 6.83085 8.69406 8.87216V10.4071C8.69406 12.4484 7.16635 14.1367 5.17969 14.4161C5.33098 14.4374 5.48511 14.4497 5.64126 14.4541C7.8395 14.382 9.59929 12.598 9.59929 10.4071V8.87216C9.59925 6.68132 7.8395 4.89734 5.64126 4.8252Z" fill="#FFB09E"/>
<path d="M6.17311 2.64868H5.44935C5.33161 2.65521 5.16992 2.66974 4.76683 2.70119C3.8708 2.77119 3.04645 3.17621 2.44678 3.81756V5.61705C2.44678 7.06939 3.62412 8.24669 5.07642 8.24669H10.3139V6.95522C10.3139 4.63147 8.47499 2.7381 6.17311 2.64868Z" fill="#D77F4A"/>
<path d="M6.17324 2.64868H5.44947C5.3503 2.65418 5.21937 2.6654 4.93982 2.68761C7.0342 2.98165 8.64592 4.7798 8.64592 6.95527V8.24674H10.3141V6.95527C10.3141 4.63143 8.47512 2.73806 6.17324 2.64868Z" fill="#C86D36"/>
<path d="M8.51119 14.509H7.20254V14.5104H7.14075C8.11223 14.538 8.89147 15.3336 8.89147 16.3118V19.3092H10.3139V16.3118C10.3139 15.3161 9.50682 14.509 8.51119 14.509Z" fill="#0078C8"/>
<path d="M8.59682 11.7637H7.88513C7.672 11.7637 7.49927 11.5909 7.49927 11.3778C7.49927 11.1647 7.672 10.9919 7.88513 10.9919H8.59682C8.80994 10.9919 8.98268 11.1647 8.98268 11.3778C8.98268 11.5909 8.80994 11.7637 8.59682 11.7637Z" fill="#FE8F83"/>
<path d="M5.49469 12.8198C4.82511 12.8198 4.2804 12.2751 4.2804 11.6056C4.2804 11.4166 4.43358 11.2634 4.62256 11.2634C4.81153 11.2634 4.96472 11.4166 4.96472 11.6056C4.96472 11.8978 5.20246 12.1356 5.49474 12.1356C5.78692 12.1356 6.02471 11.8978 6.02471 11.6056C6.02471 11.4166 6.1779 11.2634 6.36687 11.2634C6.55585 11.2634 6.70903 11.4166 6.70903 11.6056C6.70895 12.2751 6.16423 12.8198 5.49469 12.8198Z" fill="#FFA799"/>
<path d="M7.49926 10.6639C7.31029 10.6639 7.1571 10.5107 7.1571 10.3218V9.56555C7.1571 9.37657 7.31029 9.22339 7.49926 9.22339C7.68824 9.22339 7.84142 9.37657 7.84142 9.56555V10.3218C7.84142 10.5107 7.68828 10.6639 7.49926 10.6639Z" fill="#5A5A5A"/>
<path d="M3.49023 10.6639C3.30125 10.6639 3.14807 10.5107 3.14807 10.3218V9.56555C3.14807 9.37657 3.30125 9.22339 3.49023 9.22339C3.67921 9.22339 3.83239 9.37657 3.83239 9.56555V10.3218C3.83235 10.5107 3.67921 10.6639 3.49023 10.6639Z" fill="#5A5A5A"/>
<path d="M13.334 14.7656H13.1571C12.1963 14.7656 11.4174 15.5445 11.4174 16.5053V19.3562H20.2898V16.5053C20.2898 15.5445 19.511 14.7656 18.5501 14.7656H13.334Z" fill="#F07281"/>
<path d="M18.5501 14.7656H17.1252C18.0861 14.7656 18.865 15.5445 18.865 16.5053V19.3562H20.2899V16.5053C20.2899 15.5445 19.511 14.7656 18.5501 14.7656Z" fill="#EB5569"/>
<path d="M15.8478 16.598C15.011 16.598 14.3325 15.9195 14.3325 15.0827V11.436H17.3631V15.0826C17.3631 15.9195 16.6847 16.598 15.8478 16.598Z" fill="#FFB09E"/>
<path d="M14.3325 14.8669C14.7939 15.0749 15.3063 15.1917 15.8466 15.1917C16.3878 15.1917 16.9011 15.0745 17.3631 14.8658V11.436H14.3325V14.8669Z" fill="#FFA78F"/>
<path d="M21.2427 15.2306H22V13.1454C22 11.9276 21.0128 10.9404 19.795 10.9404H19.0377V13.0256C19.0377 14.2434 20.0249 15.2306 21.2427 15.2306Z" fill="#5A5A5A"/>
<path d="M19.795 10.9404H19.0377V11.0039C20.0019 11.2395 20.7176 12.1087 20.7176 13.1454V15.1671C20.8859 15.2083 21.0617 15.2306 21.2427 15.2306H22V13.1454C22 11.9276 21.0128 10.9404 19.795 10.9404Z" fill="#444444"/>
<path d="M10.4417 15.2306H9.68445V13.1454C9.68445 11.9276 10.6717 10.9404 11.8894 10.9404H12.6467V13.0256C12.6467 14.2434 11.6595 15.2306 10.4417 15.2306Z" fill="#5A5A5A"/>
<path d="M14.0629 11.4362H12.1848C11.4991 11.4362 10.9432 10.8804 10.9432 10.1947C10.9432 9.50897 11.4991 8.95312 12.1848 8.95312H14.0629V11.4362Z" fill="#FFB09E"/>
<path d="M17.6216 8.95312H19.4997C20.1854 8.95312 20.7412 9.50897 20.7412 10.1947C20.7412 10.8804 20.1854 11.4362 19.4997 11.4362H17.6216V8.95312Z" fill="#FFA78F"/>
<path d="M15.8466 5.90649C13.8299 5.90649 12.1949 7.52122 12.1949 9.51312V9.75692V10.8785C12.1949 12.8704 13.8299 14.4851 15.8466 14.4851C17.8634 14.4851 19.4983 12.8704 19.4983 10.8785V9.51312C19.4983 7.52122 17.8634 5.90649 15.8466 5.90649Z" fill="#FFCEBF"/>
<path d="M15.8467 5.90649C15.6543 5.90649 15.4655 5.9214 15.2812 5.94968C17.0295 6.2181 18.3675 7.71118 18.3675 9.51312V10.8785C18.3675 12.6804 17.0295 14.1735 15.2812 14.4419C15.4655 14.4702 15.6543 14.4851 15.8467 14.4851C17.8635 14.4851 19.4984 12.8704 19.4984 10.8785V9.51312C19.4984 7.52122 17.8635 5.90649 15.8467 5.90649Z" fill="#FFB09E"/>
<path d="M13.8009 12.2186H13.1058C12.8976 12.2186 12.7289 12.0499 12.7289 11.8417C12.7289 11.6335 12.8976 11.4648 13.1058 11.4648H13.8009C14.009 11.4648 14.1777 11.6335 14.1777 11.8417C14.1777 12.0499 14.009 12.2186 13.8009 12.2186Z" fill="#FE8F83"/>
<path d="M18.6015 12.2186H17.9064C17.6982 12.2186 17.5295 12.0499 17.5295 11.8417C17.5295 11.6335 17.6982 11.4648 17.9064 11.4648H18.6015C18.8097 11.4648 18.9784 11.6335 18.9784 11.8417C18.9784 12.0499 18.8097 12.2186 18.6015 12.2186Z" fill="#FE8F83"/>
<path d="M16.2293 3.80054C16.0155 3.80054 15.8422 3.97383 15.8422 4.18764C15.8422 3.97383 15.6688 3.80054 15.455 3.80054C13.1477 3.80054 11.2773 5.67097 11.2773 7.97822V8.95296H13.7151C14.8899 8.95296 15.8421 8.00069 15.8422 6.82601C15.8422 8.00069 16.7945 8.95296 17.9692 8.95296H20.407V7.97822C20.407 5.67097 18.5366 3.80054 16.2293 3.80054Z" fill="#5A5A5A"/>
<path d="M16.2295 3.80054C16.1186 3.80054 16.0188 3.84742 15.9482 3.92214C17.7719 4.37078 19.1248 6.01613 19.1248 7.97822V8.95296H20.4072V7.97822C20.4072 5.67092 18.5368 3.80054 16.2295 3.80054Z" fill="#444444"/>
<path d="M15.8536 13.1457C15.237 13.1457 14.7352 12.644 14.7352 12.0273C14.7352 11.8207 14.9027 11.6533 15.1092 11.6533C15.3158 11.6533 15.4832 11.8207 15.4832 12.0273C15.4832 12.2316 15.6494 12.3977 15.8536 12.3977C16.0579 12.3977 16.224 12.2316 16.224 12.0273C16.224 11.8207 16.3915 11.6533 16.598 11.6533C16.8046 11.6533 16.972 11.8207 16.972 12.0273C16.972 12.644 16.4703 13.1457 15.8536 13.1457Z" fill="#FFA799"/>
<path d="M17.5644 11.3152C17.3579 11.3152 17.1904 11.1478 17.1904 10.9412V10.2763C17.1904 10.0698 17.3579 9.90234 17.5644 9.90234H17.8503C18.0568 9.90234 18.2243 10.0698 18.2243 10.2763C18.2243 10.4525 18.1024 10.6002 17.9384 10.6399V10.9412C17.9384 11.1478 17.771 11.3152 17.5644 11.3152Z" fill="#5A5A5A"/>
<path d="M14.1427 11.3152C13.9362 11.3152 13.7687 11.1478 13.7687 10.9412V10.6399C13.6047 10.6002 13.4829 10.4525 13.4829 10.2763C13.4829 10.0698 13.6504 9.90234 13.8569 9.90234H14.1427C14.3493 9.90234 14.5167 10.0698 14.5167 10.2763V10.9412C14.5167 11.1478 14.3493 11.3152 14.1427 11.3152Z" fill="#5A5A5A"/>
</svg>
