<svg width="18" height="19" viewBox="0 0 18 19" fill="none" xmlns="http://www.w3.org/2000/svg">
<path d="M15.4 1.5C15.8243 1.5 16.2313 1.66857 16.5314 1.96863C16.8314 2.26869 17 2.67565 17 3.1V15.9C17 16.3243 16.8314 16.7313 16.5314 17.0314C16.2313 17.3314 15.8243 17.5 15.4 17.5H2.6C2.17565 17.5 1.76869 17.3314 1.46863 17.0314C1.16857 16.7313 1 16.3243 1 15.9V3.1C1 2.67565 1.16857 2.26869 1.46863 1.96863C1.76869 1.66857 2.17565 1.5 2.6 1.5" stroke="#858798" stroke-width="1.5" stroke-miterlimit="10" stroke-linecap="square"/>
<path d="M12.2 9.5L9.00002 7.1L5.80002 9.5V1.5H12.2V9.5Z" stroke="#858798" stroke-width="1.5" stroke-miterlimit="10" stroke-linecap="square"/>
</svg>
