<svg width="24" height="24" viewBox="0 0 24 24" fill="none" xmlns="http://www.w3.org/2000/svg">
<g clip-path="url(#clip0)">
<path d="M16.1619 5.78546C16.115 5.71126 16.0333 5.66626 15.9455 5.66626H11.9999H8.05434C7.9665 5.66626 7.88484 5.71126 7.83788 5.78546L5.97188 8.73352C5.91389 8.82516 5.91985 8.94338 5.98678 9.0287L11.7983 16.4368C11.9009 16.5675 12.0989 16.5675 12.2015 16.4368L18.0131 9.0287C18.08 8.94338 18.086 8.82516 18.028 8.73352L16.1619 5.78546Z" fill="#10C4C4"/>
<path d="M7.83791 5.78546L7.80603 5.83585L5.97191 8.73352C5.94238 8.78021 5.92963 8.83374 5.93286 8.88638H18.067C18.0703 8.83378 18.0575 8.78021 18.0279 8.73352L16.1938 5.83585L16.162 5.78546C16.115 5.71126 16.0333 5.66626 15.9455 5.66626H11.9999H8.05437C7.96658 5.66626 7.88488 5.71126 7.83791 5.78546Z" fill="#21D8DE"/>
<path d="M11.9848 5.66626L9.93365 8.88619H12.0006H14.036L11.9848 5.66626Z" fill="#25F2F2"/>
<path d="M14.0356 8.88615L18.0673 8.88634C18.0689 8.86046 18.0665 8.8344 18.0603 8.80899C18.0601 8.80852 18.0601 8.80806 18.06 8.80763C18.0572 8.79624 18.0532 8.78513 18.0487 8.77412C18.0481 8.77262 18.0478 8.77102 18.0472 8.76952C18.0419 8.7572 18.0356 8.74515 18.0282 8.73352L17.6502 8.13629L16.4349 6.21625L16.1622 5.78543C16.1563 5.77601 16.1497 5.7671 16.1427 5.75866C16.1419 5.75772 16.141 5.75693 16.1402 5.75599C16.1338 5.74854 16.1272 5.74137 16.12 5.7348C16.1199 5.73466 16.1197 5.73452 16.1196 5.73438C16.1037 5.71976 16.0861 5.70719 16.0672 5.69702L14.0356 8.88615Z" fill="#25F2F2"/>
<path d="M18.0669 8.88639C18.0669 8.88639 18.0669 8.88634 18.0669 8.88639C18.0685 8.86052 18.0662 8.83441 18.0599 8.80905C18.0599 8.809 18.0599 8.809 18.0599 8.80895C18.0598 8.80853 18.0598 8.80806 18.0597 8.80764C18.0568 8.79625 18.0529 8.78514 18.0484 8.77413C18.0478 8.77263 18.0475 8.77103 18.0469 8.76953C18.0416 8.7572 18.0353 8.74516 18.0279 8.73353L17.6866 8.19424L17.2694 7.53513L16.4346 6.21625L16.1619 5.78543C16.156 5.77601 16.1494 5.7671 16.1424 5.75866C16.1418 5.75786 16.141 5.75721 16.1403 5.75646C16.1402 5.75627 16.14 5.75613 16.1398 5.7559C16.1335 5.74849 16.1268 5.74132 16.1197 5.73476C16.1197 5.73471 16.1196 5.73466 16.1195 5.73461C16.1194 5.73447 16.1193 5.73438 16.1191 5.73429C16.1033 5.71971 16.0857 5.70715 16.0668 5.69702L15.0912 7.22861L15.9925 8.65258C16.0375 8.72378 16.0435 8.81087 16.0128 8.88625L18.0669 8.88639Z" fill="#21D8DE"/>
<path d="M7.93292 5.69714C7.89477 5.71767 7.86181 5.74777 7.83791 5.78555L7.1825 6.82101L5.97191 8.7336C5.94238 8.78029 5.92963 8.83382 5.93286 8.88646L9.96453 8.88627L7.93292 5.69714Z" fill="#25F2F2"/>
<path d="M9.96501 8.88708H5.93335C5.93644 8.9378 5.95444 8.98768 5.9873 9.02959L11.7989 16.4377C11.8404 16.4907 11.8978 16.5218 11.958 16.5318L9.96501 8.88708Z" fill="#21D8DE"/>
<path d="M18.0136 9.02866C18.0219 9.01816 18.0291 9.00709 18.0355 8.9957C18.041 8.98586 18.0456 8.97559 18.0497 8.96523C18.0503 8.96369 18.0512 8.96223 18.0518 8.96069C18.0607 8.93678 18.066 8.9118 18.0676 8.88658C18.0676 8.88648 18.0676 8.88639 18.0676 8.8863L14.0201 8.88611L12.0426 16.5309C12.0708 16.5263 12.0982 16.5168 12.1238 16.5029C12.1262 16.5016 12.1286 16.5004 12.1309 16.499C12.135 16.4966 12.1391 16.4939 12.1431 16.4912C12.1467 16.4887 12.1504 16.4862 12.1539 16.4836C12.1572 16.4811 12.1605 16.4785 12.1637 16.4759C12.168 16.4723 12.1722 16.4685 12.1764 16.4645C12.1788 16.4622 12.1812 16.4601 12.1835 16.4577C12.19 16.4511 12.1962 16.4442 12.2021 16.4367L15.886 11.7408L18.0136 9.02866Z" fill="#21D8DE"/>
<path d="M18.0128 9.02868C18.0211 9.01818 18.0283 9.00712 18.0348 8.99573C18.0402 8.98598 18.0447 8.97585 18.0487 8.96559C18.0489 8.96512 18.0492 8.9647 18.0493 8.96423C18.0499 8.96306 18.0505 8.96193 18.051 8.96071C18.0599 8.93685 18.0651 8.91192 18.0667 8.88675C18.0667 8.88661 18.0668 8.88646 18.0668 8.88632L16.0126 8.88623C16.0038 8.90789 15.9923 8.9287 15.9774 8.94773L13.0323 12.702L12.0418 16.531C12.07 16.5263 12.0974 16.5169 12.123 16.5029C12.1246 16.502 12.1263 16.5011 12.1279 16.5002C12.1286 16.4998 12.1293 16.4995 12.13 16.4991C12.1342 16.4967 12.1382 16.4939 12.1422 16.4913C12.1459 16.4888 12.1495 16.4863 12.1531 16.4836C12.1564 16.4811 12.1597 16.4786 12.1628 16.4759C12.1645 16.4746 12.166 16.4731 12.1676 16.4717C12.1702 16.4693 12.1729 16.467 12.1755 16.4645C12.1779 16.4623 12.1804 16.4601 12.1827 16.4577C12.1891 16.4511 12.1954 16.4442 12.2012 16.4367L15.8851 11.7408L18.0128 9.02868Z" fill="#10C4C4"/>
<path d="M15.0909 7.22865L16.0662 5.69771C16.0481 5.68801 16.0294 5.67967 16.0094 5.67446C15.9887 5.66907 15.9671 5.66626 15.9452 5.66626H14.0959C14.1071 5.67803 14.1174 5.69059 14.1263 5.70451L15.0909 7.22865Z" fill="#10C4C4"/>
<path d="M11.8294 16.4687C11.8187 16.459 11.8084 16.4487 11.7992 16.4369C11.8084 16.4487 11.8187 16.4591 11.8294 16.4687Z" fill="#0BB2AD"/>
<path d="M11.8644 16.4944C11.8561 16.4892 11.848 16.4835 11.8402 16.4772C11.848 16.4835 11.8561 16.4892 11.8644 16.4944Z" fill="#0BB2AD"/>
<path d="M11.9042 16.5149C11.8949 16.5111 11.8858 16.5071 11.8769 16.5022C11.8858 16.5071 11.8949 16.5112 11.9042 16.5149Z" fill="#0BB2AD"/>
<path d="M11.9444 16.5275C11.9413 16.5268 11.9384 16.5259 11.9353 16.5251C11.9383 16.5259 11.9413 16.5268 11.9444 16.5275Z" fill="#0BB2AD"/>
<path d="M10.951 15.356L10.9879 15.403L10.951 15.356Z" fill="#0BB2AD"/>
<path d="M11.4764 14.6855L11.9571 16.5295C11.9853 16.5339 12.0141 16.5342 12.0424 16.5294L13.0324 12.702L11.4764 14.6855Z" fill="#0BB2AD"/>
<path d="M11.9563 16.5307L11.956 16.5294C11.952 16.5288 11.9481 16.5284 11.9441 16.5276C11.9482 16.5285 11.9522 16.53 11.9563 16.5307Z" fill="#21D8DE"/>
<path d="M11.9357 16.5252C11.9247 16.5225 11.914 16.519 11.9034 16.5148C11.914 16.5191 11.9247 16.5224 11.9357 16.5252Z" fill="#21D8DE"/>
<path d="M10.9879 15.4031L11.7989 16.4368L11.799 16.4369L11.7989 16.4368L10.9879 15.4031Z" fill="#21D8DE"/>
<path d="M11.84 16.4773C11.8365 16.4745 11.833 16.4717 11.8297 16.4688C11.833 16.4717 11.8365 16.4745 11.84 16.4773Z" fill="#21D8DE"/>
<path d="M11.8765 16.5022C11.8723 16.4999 11.8682 16.4971 11.864 16.4945C11.8682 16.4971 11.8723 16.4999 11.8765 16.5022Z" fill="#21D8DE"/>
<path d="M10.951 15.356L10.9879 15.4031L11.7989 16.4368C11.7989 16.4369 11.799 16.4369 11.799 16.437C11.8082 16.4488 11.8185 16.4591 11.8292 16.4687C11.8325 16.4717 11.836 16.4745 11.8395 16.4773C11.8472 16.4836 11.8554 16.4893 11.8637 16.4945C11.8679 16.4972 11.872 16.4999 11.8762 16.5023C11.8851 16.5071 11.8943 16.5111 11.9035 16.5149C11.9141 16.5191 11.9249 16.5226 11.9358 16.5253C11.9388 16.5261 11.9418 16.527 11.9449 16.5277C11.9491 16.5286 11.9534 16.5289 11.9576 16.5296L11.4769 14.6857L10.951 15.356Z" fill="#10C4C4"/>
<path d="M1.83264 5.18012C2.43808 4.51956 3.07258 3.92514 3.77116 3.37329C3.85333 3.30841 3.97159 3.38608 3.94408 3.4871C3.55253 4.9263 2.86839 6.34857 1.81371 7.40588C1.76636 6.66568 1.76566 5.91929 1.83264 5.18012Z" fill="#FFB125"/>
<path d="M1.81353 7.40644C1.20463 6.67163 0.681411 5.91192 0.209896 5.09171C0.15599 4.99791 0.0125998 5.03138 0.00711547 5.13943C-0.0779156 6.81956 0.564036 8.78545 2.12802 9.57834C1.97216 8.86382 1.85985 8.13675 1.81353 7.40644Z" fill="#FFB125"/>
<path d="M2.1279 9.57781C2.5111 8.78937 2.94005 8.05577 3.44279 7.34468C3.50246 7.26031 3.63619 7.29898 3.64055 7.4022C3.70182 8.85354 3.45277 10.3878 2.75734 11.6618C2.49962 10.9837 2.28212 10.2872 2.1279 9.57781Z" fill="#FFB125"/>
<path d="M2.75726 11.6623C1.96663 11.1542 1.24433 10.5986 0.551519 9.97451C0.471597 9.90251 0.346207 9.9777 0.3733 10.0818C0.790674 11.6866 1.98425 13.3334 3.68361 13.6243C3.33036 12.9935 3.0139 12.3388 2.75726 11.6623Z" fill="#FFB125"/>
<path d="M3.68396 13.6238C3.82248 12.7636 4.02057 11.943 4.29633 11.1227C4.32915 11.0251 4.46766 11.0232 4.50202 11.1202C4.98431 12.4819 5.17969 14.018 4.88869 15.4297C4.44643 14.8573 4.03721 14.2556 3.68396 13.6238Z" fill="#FFB125"/>
<path d="M4.88907 15.4302C3.98776 15.1749 3.13633 14.8555 2.293 14.4641C2.19559 14.4189 2.09795 14.5272 2.15411 14.6188C3.02115 16.0328 4.64443 17.257 6.35419 17.046C5.82934 16.5432 5.33335 16.006 4.88907 15.4302Z" fill="#FFB125"/>
<path d="M6.35305 17.0456C6.23005 16.179 6.17783 15.3337 6.20197 14.4648C6.20483 14.3619 6.33697 14.3196 6.3981 14.4026C7.26168 15.5733 7.90589 16.9955 8.06006 18.4374C7.45959 18.0154 6.88302 17.5541 6.35305 17.0456Z" fill="#FFB125"/>
<path d="M22.1663 5.18012C21.5609 4.51956 20.9264 3.92514 20.2278 3.37329C20.1457 3.30841 20.0274 3.38608 20.0549 3.4871C20.4464 4.9263 21.1306 6.34857 22.1853 7.40588C22.2326 6.66568 22.2333 5.91929 22.1663 5.18012Z" fill="#FFB125"/>
<path d="M22.1865 7.40644C22.7954 6.67163 23.3186 5.91192 23.7901 5.09171C23.844 4.99791 23.9874 5.03138 23.9929 5.13943C24.0779 6.81956 23.436 8.78545 21.872 9.57834C22.0278 8.86382 22.1402 8.13675 22.1865 7.40644Z" fill="#FFB125"/>
<path d="M21.872 9.57781C21.4888 8.78937 21.0598 8.05577 20.5571 7.34468C20.4974 7.26031 20.3637 7.29898 20.3593 7.4022C20.2981 8.85354 20.5471 10.3878 21.2426 11.6618C21.5003 10.9837 21.7178 10.2872 21.872 9.57781Z" fill="#FFB125"/>
<path d="M21.2418 11.6623C22.0325 11.1542 22.7548 10.5986 23.4476 9.97451C23.5275 9.90251 23.6529 9.9777 23.6258 10.0818C23.2084 11.6866 22.0148 13.3334 20.3155 13.6243C20.6687 12.9935 20.9852 12.3388 21.2418 11.6623Z" fill="#FFB125"/>
<path d="M20.3165 13.6238C20.178 12.7636 19.9799 11.943 19.7042 11.1227C19.6713 11.0251 19.5328 11.0232 19.4985 11.1202C19.0162 12.4819 18.8208 14.018 19.1118 15.4297C19.5541 14.8573 19.9633 14.2556 20.3165 13.6238Z" fill="#FFB125"/>
<path d="M19.1098 15.4302C20.0111 15.1749 20.8626 14.8555 21.7059 14.4641C21.8033 14.4189 21.9009 14.5272 21.8448 14.6188C20.9778 16.0328 19.3545 17.257 17.6447 17.046C18.1695 16.5432 18.6655 16.006 19.1098 15.4302Z" fill="#FFB125"/>
<path d="M17.6453 17.0456C17.7683 16.179 17.8205 15.3337 17.7964 14.4648C17.7935 14.3619 17.6614 14.3196 17.6002 14.4026C16.7367 15.5733 16.0925 16.9955 15.9383 18.4374C16.5388 18.0154 17.1153 17.5541 17.6453 17.0456Z" fill="#FFB125"/>
<path d="M22.5164 5.20975C22.5163 5.20262 22.5164 5.19554 22.5159 5.18837C22.4332 4.08648 22.23 2.98187 21.9122 1.9053C21.8556 1.71344 21.654 1.6038 21.4623 1.66047C21.2705 1.7171 21.1608 1.91852 21.2175 2.11038C21.5177 3.12751 21.7103 4.17048 21.7908 5.21082C21.791 5.21861 21.791 5.22639 21.7917 5.23426C21.8527 5.90687 21.8588 6.63573 21.8099 7.40068C21.8099 7.40096 21.8098 7.40129 21.8098 7.40157C21.7677 8.06574 21.6646 8.77693 21.5035 9.51539C21.5035 9.51544 21.5035 9.51554 21.5035 9.51558C21.3632 10.1607 21.1569 10.8434 20.8904 11.5447C20.8903 11.5449 20.8902 11.5451 20.8901 11.5454V11.5454C20.6565 12.1612 20.3529 12.804 19.9879 13.4557C19.6661 14.0313 19.2714 14.6229 18.8145 15.2143C18.8145 15.2144 18.8144 15.2145 18.8143 15.2146C18.8142 15.2147 18.8141 15.2148 18.8141 15.2149C18.4092 15.7396 17.9293 16.2688 17.3876 16.7878L17.3876 16.7879C16.9049 17.251 16.3458 17.7067 15.7256 18.1425C15.7234 18.1441 15.7214 18.1459 15.7192 18.1475C15.7171 18.1491 15.7149 18.1504 15.7128 18.152C14.6695 18.9535 14.1409 19.1534 13.5812 19.365C13.1379 19.5326 12.6854 19.7041 12.0006 20.1606C11.3159 19.7041 10.8633 19.5326 10.42 19.365C9.86036 19.1534 9.33171 18.9535 8.28846 18.152C8.2864 18.1504 8.28414 18.1491 8.28204 18.1476C8.27983 18.1459 8.27782 18.1441 8.27557 18.1425C7.65541 17.7067 7.09629 17.251 6.61362 16.7879L6.61357 16.7878C6.07193 16.2689 5.59202 15.7396 5.18712 15.2149C5.18703 15.2148 5.18693 15.2147 5.18688 15.2146C5.18679 15.2145 5.18674 15.2144 5.18665 15.2143C4.72981 14.6229 4.33503 14.0313 4.01328 13.4557C3.64826 12.804 3.34475 12.1612 3.11108 11.5454C3.11108 11.5454 3.11108 11.5454 3.11103 11.5454C3.11094 11.5451 3.11089 11.5449 3.11079 11.5447C2.84417 10.8434 2.63787 10.1607 2.49758 9.51558C2.49758 9.51549 2.49753 9.51544 2.49753 9.51539C2.33637 8.77693 2.23334 8.06569 2.19125 7.40157C2.1912 7.40124 2.19116 7.40096 2.19116 7.40068C2.14222 6.63577 2.14831 5.90687 2.20934 5.23426C2.21005 5.22639 2.21009 5.21861 2.21028 5.21082C2.29072 4.17048 2.48333 3.12756 2.78361 2.11038C2.84023 1.91852 2.73059 1.7171 2.53873 1.66047C2.34706 1.6037 2.14545 1.71344 2.08883 1.9053C1.77102 2.98187 1.56791 4.08648 1.48513 5.18837C1.48456 5.19554 1.4847 5.20262 1.48461 5.20975C1.42367 5.90795 1.41791 6.6602 1.4683 7.44695C1.4683 7.44713 1.4683 7.44727 1.4683 7.44746C1.51274 8.14744 1.62083 8.89454 1.78948 9.66802C1.78958 9.66854 1.78963 9.66905 1.78972 9.66957C1.93766 10.3497 2.15422 11.0671 2.4335 11.8019C2.43359 11.802 2.43364 11.8022 2.43369 11.8024C2.67992 12.4512 2.99848 13.1263 3.38065 13.8088C3.38075 13.8089 3.38079 13.809 3.38089 13.8092C3.72007 14.4159 4.13473 15.0376 4.61342 15.6571C4.61346 15.6572 4.61351 15.6572 4.61356 15.6573C4.6136 15.6573 4.6136 15.6573 4.6136 15.6574C5.04054 16.2107 5.54487 16.7671 6.11262 17.3111C6.11276 17.3112 6.11295 17.3113 6.11309 17.3115C6.62041 17.7981 7.20583 18.2757 7.85313 18.7309C8.97728 19.5939 9.58052 19.822 10.1638 20.0426C10.5268 20.1798 10.8802 20.3137 11.3695 20.6146C10.9949 20.9016 10.5611 21.2618 10.0465 21.7223C9.89739 21.8557 9.88464 22.0847 10.018 22.2337C10.0896 22.3137 10.1886 22.3544 10.2881 22.3544C10.3741 22.3544 10.4604 22.324 10.5295 22.2621C11.1263 21.7281 11.6033 21.3378 12.0005 21.0443C12.3977 21.3378 12.8747 21.7281 13.4716 22.2621C13.5407 22.324 13.627 22.3544 13.713 22.3544C13.8124 22.3544 13.9115 22.3137 13.983 22.2337C14.1164 22.0847 14.1037 21.8557 13.9546 21.7223C13.44 21.2618 13.0061 20.9016 12.6316 20.6146C13.1208 20.3137 13.4742 20.1798 13.8373 20.0426C14.4206 19.8221 15.0238 19.5939 16.1479 18.7309C16.7952 18.2757 17.3806 17.7981 17.888 17.3115C17.8881 17.3113 17.8883 17.3112 17.8884 17.3111C18.4562 16.7671 18.9605 16.2107 19.3875 15.6574C19.3875 15.6573 19.3875 15.6573 19.3875 15.6573C19.3875 15.6572 19.3876 15.6572 19.3876 15.6571C19.8663 15.0376 20.281 14.4159 20.6202 13.8092C20.6203 13.809 20.6203 13.8089 20.6204 13.8088C21.0025 13.1263 21.3211 12.4512 21.5674 11.8024C21.5674 11.8022 21.5675 11.802 21.5676 11.8019C21.8468 11.0671 22.0634 10.3497 22.2113 9.66957C22.2114 9.66905 22.2115 9.66854 22.2116 9.66802C22.3803 8.89454 22.4883 8.14744 22.5328 7.44746C22.5328 7.44727 22.5328 7.44713 22.5328 7.44695C22.5832 6.6602 22.5774 5.90795 22.5164 5.20975Z" fill="#FD9727"/>
</g>
<defs>
<clipPath id="clip0">
<rect width="24" height="24" fill="white"/>
</clipPath>
</defs>
</svg>
