<svg width="13" height="13" viewBox="0 0 13 13" fill="none" xmlns="http://www.w3.org/2000/svg">
<path d="M8.15207 4.62421L10.0669 2.70833H7.58332V1.625H11.9166V5.95833H10.8333V3.47425L8.91744 5.39013C9.54244 6.20941 9.83276 7.23558 9.72959 8.26087C9.62643 9.28615 9.13749 10.2339 8.3618 10.9123C7.5861 11.5906 6.58161 11.9488 5.55173 11.9144C4.52184 11.8799 3.54353 11.4554 2.81488 10.7268C2.08623 9.99812 1.66171 9.01981 1.62727 7.98992C1.59283 6.96004 1.95105 5.95555 2.62939 5.17985C3.30773 4.40415 4.2555 3.91522 5.28078 3.81206C6.30607 3.70889 7.33224 3.9992 8.15152 4.62421H8.15207ZM5.68748 10.8333C6.47761 10.8333 7.23537 10.5195 7.79407 9.96076C8.35277 9.40205 8.66665 8.64429 8.66665 7.85417C8.66665 7.06404 8.35277 6.30628 7.79407 5.74758C7.23537 5.18888 6.47761 4.875 5.68748 4.875C4.89736 4.875 4.1396 5.18888 3.58089 5.74758C3.02219 6.30628 2.70832 7.06404 2.70832 7.85417C2.70832 8.64429 3.02219 9.40205 3.58089 9.96076C4.1396 10.5195 4.89736 10.8333 5.68748 10.8333Z" fill="#1A73E9"/>
</svg>
