<svg width="18" height="19" viewBox="0 0 18 19" fill="none" xmlns="http://www.w3.org/2000/svg">
<path d="M11.5 17L12.1748 15.8753C12.7032 14.9947 13.5597 14.3601 14.5559 14.111V14.111C15.9923 13.7519 17 12.4613 17 10.9807V7.5C17 4.73858 14.7614 2.5 12 2.5H6C3.23858 2.5 1 4.73858 1 7.5V9.5C1 12.2614 3.23858 14.5 6 14.5H7V14.5C7.65205 14.5 8.28951 14.693 8.83205 15.0547L9.5 15.5" stroke="#858798" stroke-width="1.5" stroke-miterlimit="10" stroke-linecap="round" stroke-linejoin="round"/>
<rect x="7.875" y="7.375" width="2.25" height="2.25" rx="1.125" fill="#858798" stroke="#858798" stroke-width="0.25"/>
<rect x="3.875" y="7.375" width="2.25" height="2.25" rx="1.125" fill="#858798" stroke="#858798" stroke-width="0.25"/>
<rect x="11.875" y="7.375" width="2.25" height="2.25" rx="1.125" fill="#858798" stroke="#858798" stroke-width="0.25"/>
</svg>
