<svg width="18" height="19" viewBox="0 0 18 19" fill="none" xmlns="http://www.w3.org/2000/svg">
<path fill-rule="evenodd" clip-rule="evenodd" d="M10.6483 15.25C10.5208 16.0442 9.8323 16.6509 9.00214 16.6509C8.17198 16.6509 7.48352 16.0442 7.35595 15.25L10.6483 15.25ZM12.1585 15.25C12.0231 16.8746 10.6617 18.1509 9.00214 18.1509C7.3426 18.1509 5.98116 16.8746 5.84582 15.25L1.75002 15.25C1.33581 15.25 1.00002 14.9142 1.00002 14.5C1.00002 14.0858 1.33581 13.75 1.75002 13.75L16.2543 13.75C16.6685 13.75 17.0043 14.0858 17.0043 14.5C17.0043 14.9142 16.6685 15.25 16.2543 15.25L12.1585 15.25Z" fill="#858798"/>
<path d="M4 7.5C4 4.73858 6.23858 2.5 9 2.5V2.5C11.7614 2.5 14 4.73858 14 7.5V14.5H4V7.5Z" stroke="#858798" stroke-width="1.5" stroke-miterlimit="10" stroke-linecap="round" stroke-linejoin="round"/>
</svg>
