<svg width="13" height="13" viewBox="0 0 13 13" fill="none" xmlns="http://www.w3.org/2000/svg">
<path d="M5.95837 8.631C4.93784 8.49264 4.00792 7.9719 3.35667 7.17409C2.70542 6.37627 2.38144 5.3609 2.45025 4.33333C2.51905 3.30576 2.97551 2.34266 3.72732 1.63879C4.47912 0.934917 5.47017 0.542807 6.50004 0.54175C7.53117 0.540756 8.5241 0.931898 9.27753 1.63588C10.031 2.33986 10.4885 3.304 10.5574 4.33283C10.6263 5.36165 10.3014 6.37819 9.64852 7.17633C8.99568 7.97448 8.06377 8.49451 7.04171 8.631V9.75008H9.75004V10.8334H7.04171V13.0001H5.95837V10.8334H3.25004V9.75008H5.95837V8.631ZM6.50004 7.58342C7.29017 7.58342 8.04793 7.26954 8.60663 6.71084C9.16533 6.15214 9.47921 5.39437 9.47921 4.60425C9.47921 3.81413 9.16533 3.05636 8.60663 2.49766C8.04793 1.93896 7.29017 1.62508 6.50004 1.62508C5.70992 1.62508 4.95215 1.93896 4.39345 2.49766C3.83475 3.05636 3.52087 3.81413 3.52087 4.60425C3.52087 5.39437 3.83475 6.15214 4.39345 6.71084C4.95215 7.26954 5.70992 7.58342 6.50004 7.58342Z" fill="#ED2EFF"/>
</svg>
